Coordinates
version=1
nRows=17
nColumns=36
inDegrees=yes

Units are S.I. units (second, meters, Newtons, ...)
If the header above contains a line with 'inDegrees', this indicates whether rotational values are in degrees (yes) or radians (no).

endheader
time	pelvis_tilt	pelvis_list	pelvis_rotation	pelvis_tx	pelvis_ty	pelvis_tz	hip_flexion_r	hip_adduction_r	hip_rotation_r	knee_angle_r	knee_angle_r_beta	ankle_angle_r	subtalar_angle_r	mtp_angle_r	hip_flexion_l	hip_adduction_l	hip_rotation_l	knee_angle_l	knee_angle_l_beta	ankle_angle_l	subtalar_angle_l	mtp_angle_l	lumbar_extension	lumbar_bending	lumbar_rotation	arm_flex_r	arm_add_r	arm_rot_r	elbow_flex_r	pro_sup_r	arm_flex_l	arm_add_l	arm_rot_l	elbow_flex_l	pro_sup_l
      2.50000000	     -8.44596821	     -1.50340953	      7.17420193	      1.23435251	      1.27263443	     -0.05063848	     10.91269551	     -2.08611301	    -14.06320244	      1.71795228	      0.02998392	    -28.10917114	      0.91275355	     -7.49999987	     13.37423939	     -7.46886976	     -4.37237714	      4.11350244	      0.07179416	    -22.30726380	     -4.32111079	     -7.49999987	     10.01641490	     -3.42623282	     44.06481687	    -59.47926995	      9.73277410	     -7.15315951	     21.67275636	     58.08237242	    -71.74829708	    -36.17074803	    -13.76572882	     13.15646090	     29.39544407
      2.51666670	     -8.59157125	     -1.79790686	      8.09253889	      1.23465319	      1.28060279	     -0.05134012	     11.83228165	     -1.87403166	    -12.20409656	      1.80062891	      0.03142690	    -20.82112836	      0.91339938	     -7.49999987	     14.06204013	     -7.52831393	     -3.30495489	      3.86915512	      0.06752950	    -17.96213958	     -5.33392349	     -7.49999987	      9.27722627	     -3.61583617	     41.62893216	    -57.77790346	      7.78586355	     -3.80718223	     22.57036319	     56.28290088	    -68.29907211	    -33.93689906	     -9.93391696	     13.01190055	     25.83386230
      2.53333330	     -8.80737682	     -1.94800150	      8.62765132	      1.23421818	      1.29303973	     -0.05202646	     12.71028598	     -1.94535097	    -10.32810442	      1.81010828	      0.03159235	    -13.92927555	      0.86004648	     -7.49999987	     14.73231069	     -7.53981566	     -3.63462154	      3.51921543	      0.06142190	    -13.70291945	     -6.71385173	     -7.49999987	      8.46047502	     -3.69577079	     39.27237220	    -55.51235693	      6.22846984	     -4.59980019	     22.87872390	     56.34045469	    -64.07177128	    -31.03589375	     -8.90280357	     12.67008005	     28.76739569
      2.55000000	     -9.32086873	     -1.92202019	      8.35429723	      1.23097766	      1.30431309	     -0.04973370	     14.11229450	     -2.19024807	     -8.98455419	      1.73488511	      0.03027946	     -8.98407948	      0.78078689	     -7.49999987	     15.46399709	     -7.45178353	     -4.22356844	      3.25981956	      0.05689458	    -10.48364837	     -7.75384243	     -7.49999987	      7.80036498	     -4.10523175	     37.59140634	    -53.02341363	      4.53309847	     -4.90456182	     23.60899623	     56.64583999	    -60.08445182	    -28.37419221	     -7.27532374	     12.31651420	     30.64584317
      2.56666670	     -9.61449668	     -1.94602689	      8.26744868	      1.23078461	      1.31293484	     -0.04987711	     14.96938891	     -2.31738678	     -8.00190814	      1.45868196	      0.02545880	     -5.60240789	      0.63798148	     -7.49999987	     15.88311037	     -7.25720228	     -5.21291653	      2.90712044	      0.05073882	     -8.40585836	     -8.34038391	     -7.49999987	      7.05815460	     -4.33036559	     35.20987715	    -50.07919394	      2.64227266	     -4.54685017	     23.80694365	     56.69262545	    -56.66574332	    -25.56201802	     -5.05248054	     12.10719987	     30.75040885
      2.58333330	     -9.76102421	     -1.87466557	      8.46134325	      1.23388080	      1.32198765	     -0.04773686	     15.35221169	     -2.50558505	     -7.78376102	      1.18817909	      0.02073764	     -3.71412872	      0.48953488	     -7.49999987	     16.14186255	     -6.96233530	     -6.05379205	      2.62439775	      0.04580438	     -7.38396447	     -8.33826473	     -7.49999987	      6.45430308	     -4.49536428	     32.85299278	    -47.36104203	      0.90166550	     -1.13675156	     23.91681626	     56.98918172	    -53.68147066	    -23.87194767	      0.98501981	     11.70688775	     30.29053569
      2.60000000	     -9.69841802	     -1.88806947	      8.40405722	      1.23353237	      1.31865975	     -0.04745468	     15.48282456	     -2.54776897	     -7.58976363	      1.10868927	      0.01935028	     -2.34388686	      0.07129783	     -7.49999987	     16.12804810	     -6.75992051	     -7.10499287	      2.45568824	      0.04285985	     -6.24759929	     -8.05642619	     -7.49999987	      5.31319569	     -4.50334748	     30.61648282	    -45.69307922	     -0.71420112	      0.11116327	     24.75955572	     56.96336104	    -51.21593992	    -22.00067742	      4.16834743	     11.72715644	     29.70677223
      2.61666670	     -9.53665834	     -1.88347496	      8.38203001	      1.23371243	      1.31633152	     -0.04758568	     15.36039976	     -2.63116810	     -7.98423554	      1.13734827	      0.01985047	     -1.17046931	      0.07215722	     -7.49999987	     16.02363123	     -6.57635884	     -7.89920202	      2.28577286	      0.03989426	     -5.57211710	     -7.97834241	     -7.49999987	      4.03088021	     -4.39980946	     28.09435244	    -44.75244307	     -2.50906030	     -0.11670931	     26.34406649	     57.45353674	    -49.01584805	    -19.71773324	      4.98560258	     12.09709430	     33.62759124
      2.63333330	     -9.56724350	     -1.95009439	      8.09263687	      1.23800212	      1.30957301	     -0.04986131	     15.40102959	     -2.66519034	     -7.63407243	      1.25316303	      0.02187182	     -0.29911431	     -0.41874638	     -7.49999987	     16.10347301	     -6.50031075	     -8.56426631	      2.45170516	      0.04279033	     -4.72485072	     -8.02350990	     -7.49999987	      3.13302204	     -4.05796293	     25.61305790	    -43.62302129	     -4.81957925	      1.81002635	     27.13429150	     56.09797264	    -47.14067154	    -18.55952620	     17.50929684	     13.34873345	     22.37034885
      2.65000000	     -9.51681517	     -2.12626375	      7.80188609	      1.24173955	      1.30373633	     -0.04687987	     15.21245990	     -2.55896835	     -7.36360008	      1.27968935	      0.02233479	      0.50617164	     -0.80259091	     -7.49999987	     15.91375261	     -6.61498402	     -9.08827722	      2.38524835	      0.04163044	     -3.83740073	     -8.20417493	     -7.49999987	      2.11345800	     -3.67996297	     23.05822315	    -42.32829150	     -6.97543057	      3.67536326	     28.28810099	     57.49471944	    -45.34884589	    -17.12814660	     20.96194382	     14.40186552	     24.82332227
      2.66666670	     -9.64435191	     -2.26176463	      7.54672065	      1.23451149	      1.28417221	     -0.04576951	     15.41029884	     -2.53510698	     -7.09679480	      1.37513484	      0.02400063	      0.99146220	     -1.28700859	     -7.49999987	     16.20577873	     -6.59260504	     -9.28069177	      2.63883525	      0.04605636	     -2.93060170	     -8.74202493	     -7.49999987	      0.86142084	     -3.29960735	     20.32264899	    -40.75354774	     -9.60981198	      5.71952418	     30.23027620	     58.24881582	    -43.23712225	    -16.19427178	     26.54421739	     16.13742939	     25.99148116
      2.68333330	     -9.50532733	     -2.40716221	      7.34868670	      1.24237592	      1.27286472	     -0.04537966	     15.27831397	     -2.44241124	     -6.62831126	      1.69532273	      0.02958896	      1.34873103	     -1.78270472	     -7.49999987	     16.04070531	     -6.70430858	     -9.46996303	      2.81817244	      0.04918639	     -2.43832182	     -8.68530027	     -7.49999987	     -0.20063054	     -2.55298180	     17.65312832	    -38.70966243	    -11.56130319	      8.25490983	     30.60307758	     56.59814293	    -40.58651676	    -15.83209641	     35.14445292	     18.43887357	     20.80338758
      2.70000000	     -9.56294465	     -2.54505556	      7.15018080	      1.24296359	      1.25140854	     -0.04422638	     15.44664216	     -2.46255830	     -6.00318898	      2.15649628	      0.03763796	      1.29764158	     -2.56133330	     -7.49999987	     16.07039632	     -6.72550622	     -9.17334163	      3.04415195	      0.05313047	     -1.84941678	     -9.10104244	     -7.49999987	     -1.09595199	     -1.93711319	     14.96428613	    -36.34079428	    -13.46473146	     11.80748554	     30.74558752	     57.68914692	    -37.99700618	    -15.08380597	     38.73525192	     21.07160430	     24.19125694
      2.71666670	     -9.16117650	     -2.58436266	      6.93658769	      1.24321406	      1.23568395	     -0.04405775	     15.09906478	     -2.51136817	     -5.55236052	      2.63021328	      0.04590588	      1.25094734	     -2.63274408	     -7.49999987	     15.53493955	     -6.73720423	     -9.10002028	      3.21157550	      0.05605257	     -1.65263699	     -9.25259150	     -7.49999987	     -2.58171368	     -1.21207719	     12.55907836	    -32.96889651	    -14.89976312	     12.63053434	     31.20179028	     58.01710404	    -34.35011560	    -14.12227129	     39.98642860	     23.52911968	     28.16606048
      2.73333330	     -9.60956810	     -2.73432103	      6.80238854	      1.24439965	      1.20666069	     -0.04230540	     15.85945350	     -2.62166717	     -4.83008184	      3.48052393	      0.06074660	      0.81128923	     -4.10779880	     -7.49999987	     16.00647488	     -6.67100322	     -8.79870604	      3.74408332	      0.06534658	     -1.61669184	     -9.81990000	     -7.49999987	     -2.76587731	     -0.89104146	     10.70497247	    -29.21712496	    -16.35834833	     18.95339066	     29.98458323	     58.85442730	    -30.53425088	    -14.54581081	     44.76860355	     26.28245033	     30.32228104
      2.75000000	     -9.64807294	     -2.87969480	      6.79505527	      1.24517043	      1.18141210	     -0.04164766	     16.31050103	     -2.72158518	     -4.79057500	      4.55836867	      0.07955854	      0.62823350	     -5.19264954	     -7.49999987	     16.03486656	     -6.77619285	     -8.71244951	      4.34299629	      0.07579958	     -1.39343293	    -10.11230228	     -7.49999987	     -3.37085920	     -0.57701246	      9.53165326	    -25.53270902	    -17.28425114	     23.35935379	     30.44374029	     58.26651651	    -26.53188623	    -15.38141447	     46.48565604	     28.75258900	     31.63142157
      2.76666670	     -9.84359087	     -2.91238169	      6.87622285	      1.24222879	      1.15512865	     -0.04339460	     16.97692900	     -3.07073137	     -4.78487396	      5.63007587	      0.09826336	     -0.59110769	     -6.58812496	     -7.49999987	     16.35991661	     -6.59332558	     -8.43981204	      4.82463980	      0.08420585	     -2.02048597	    -11.07884341	     -7.49999987	     -3.83156540	     -0.35142785	      8.74849034	    -20.80468225	    -17.09493007	     25.54077307	     28.99923634	     58.31219852	    -21.86269602	    -15.84253394	     47.21707117	     29.78558228	     33.25992145
